<?xml version="1.0" encoding="iso-8859-1"?>
<!-- Generator: Adobe Illustrator 16.0.0, SVG Export Plug-In . SVG Version: 6.00 Build 0)  -->
<!DOCTYPE svg PUBLIC "-//W3C//DTD SVG 1.1//EN" "http://www.w3.org/Graphics/SVG/1.1/DTD/svg11.dtd">
<svg version="1.1" id="Capa_1" xmlns="http://www.w3.org/2000/svg" xmlns:xlink="http://www.w3.org/1999/xlink" x="0px" y="0px"
	 width="333.687px" height="333.687px" viewBox="0 0 333.687 333.687" style="enable-background:new 0 0 333.687 333.687;"
	 xml:space="preserve">
<g>
	<g>
		<path d="M280.628,186.6c-3.477-3.489-8.112-5.429-13.043-5.429c-4.924,0-9.56,1.867-13.03,5.351
			c-3.488,3.482-5.416,8.016-5.416,12.945c0,4.937,1.928,10.629,5.404,14.1l17.233,18.093h-38.442c-0.223,0-0.444-0.979-0.66-1.039
			c-0.925-1.141-2.174-2.979-3.393-4.696c-0.505-0.714-1.058-1.717-1.628-2.317l-51.557-55.28l-4.909,5.17l-25.256-27.024
			l4.921-5.275l-48.879-52.266c-7.046-9.908-10.995-12.58-12.334-13.472c-1.219-0.808-4.924-2.086-15.441-4.354
			c-1.303-0.285-2.648,0.682-4.002,0.682h-51.75C8.278,71.787,0,80.065,0,90.234c0,10.169,8.278,18.446,18.447,18.446h49.642
			c0.354,0,0.706-0.955,1.045-0.861c0.91,1.126,2.12,2.2,3.282,3.87c0.555,0.805,1.159,1.216,1.729,1.807l51.428,54.794l4.897-5.315
			l25.265,26.986l-4.882,5.206l49.017,52.355c7.08,9.824,10.959,12.311,12.232,13.156c2.018,1.357,5.752,4.456,14.928,6.563
			c1.345,0.301,2.708,1.31,4.059,1.31h38.551l-11.564,10.719c-3.489,3.482-5.417,7.89-5.417,12.813
			c0,4.925,1.928,9.241,5.393,12.719c3.482,3.488,8.118,5.248,13.055,5.248c4.936,0,9.571-2,13.042-5.488l44.123-44.172
			c3.489-3.482,5.417-8.142,5.417-13.066c0-4.924-1.928-9.583-5.405-13.06L280.628,186.6z M319.587,251.667l-44.136,44.142
			c-1.2,1.201-2.773,1.801-4.347,1.801s-3.146-0.6-4.348-1.801c-2.402-2.408-2.402-5.44,0-7.837l32.569-31.717h-68.238
			c-0.456,0-0.912-0.907-1.369-1.015c-2.954-0.673-8.286-2.486-10.76-4.144c-3.099-2.065-7.543-8.251-9.561-11.085L83.133,104.943
			c-0.201-0.216-0.387-0.499-0.558-0.745c-2.492-3.573-5.579-6.296-6.611-7.077c-0.627-0.315-3.657-0.739-6.437-0.739h-51.08
			c-3.398,0-6.149-2.756-6.149-6.148c0-3.393,2.75-6.149,6.149-6.149h51.75c0.432,0,0.874-1.068,1.297-0.979
			c3.125,0.672,8.746,1.501,11.34,3.225c3.122,2.083,7.563,7.827,9.581,10.691L218.67,231.846c0.192,0.203,0.379,0.354,0.541,0.582
			c2.51,3.555,5.608,8.172,6.629,8.947c0.583,0.288,3.381,2.582,5.969,2.582h69.656l-38.227-39.086
			c-2.402-2.396-2.402-6.725,0-9.121c2.407-2.407,6.293-2.624,8.694-0.216l47.654,47.552
			C321.989,245.477,321.989,249.271,319.587,251.667z"/>
		<path d="M74.075,223.126c-0.594,0.648-1.129,1.213-1.603,1.903c-1.156,1.664-2.375,4.324-3.309,5.482
			c-0.331,0.097-0.7,1.147-1.081,1.147H18.447C8.278,231.659,0,239.939,0,250.105s8.278,18.447,18.447,18.447h51.75
			c1.321,0,2.639-1.003,3.888-1.279c10.644-2.294,14.352-4.996,15.573-5.812c1.315-0.877,5.257-3.831,12.304-13.739l48.897-52.416
			l-25.28-27.1L74.075,223.126z M92.414,239.64c-2.012,2.87-6.458,8.893-9.581,10.977c-2.594,1.729-8.215,3.976-11.34,4.642
			c-0.423,0.09-0.859,0.997-1.297,0.997h-51.75c-3.398,0-6.149-2.757-6.149-6.149s2.75-6.148,6.149-6.148h51.08
			c2.786,0,5.828-2.384,6.629-2.811c0.847-0.654,3.939-4.9,6.419-8.473c0.165-0.246,0.357-0.685,0.558-0.9l47.342-50.717
			l8.422,8.947L92.414,239.64z"/>
		<path d="M227.696,113.01c0.57-0.622,1.099-1.303,1.562-1.958c1.194-1.69,2.456-2.132,3.398-3.3
			c0.216-0.069,0.45,0.928,0.685,0.928h39.121l-14.399,13.295c-7.193,7.193-7.182,18.411,0.013,25.61
			c3.488,3.479,8.112,5.077,13.03,5.077c4.924,0,9.547-2.072,13.042-5.563l44.135-44.216c3.483-3.486,5.405-8.161,5.405-13.084
			c0-4.933-1.928-9.587-5.405-13.061l-47.653-47.681c-3.477-3.486-8.112-5.422-13.043-5.422c-4.924,0-9.56,1.883-13.03,5.362
			c-7.205,7.188-7.205,20.077-0.012,27.283l14.405,15.507h-37.854c-1.356,0-2.72-0.967-4.119-0.651
			c-9.085,2.084-12.826,3.639-14.861,4.999c-1.297,0.868-5.177,3.162-12.226,12.949l-49.036,52.248l25.245,26.91L227.696,113.01z
			 M209.412,96.587c2.005-2.828,6.461-8.794,9.548-10.865c2.474-1.654,7.812-1.919,10.76-2.597c0.457-0.102,0.913,0.96,1.369,0.96
			h67.542l-35.392-36.512c-2.408-2.405-2.408-6.854,0-9.254c2.401-2.404,7.56-2.681,9.968-0.276l47.149,45.585v0.012l0.492,1.76
			c2.408,2.405,1.766,6.296-0.637,8.701l-44.447,44.138c-1.195,1.198-2.93,1.802-4.497,1.802s-3.225-0.609-4.438-1.802
			c-2.402-2.405-2.438-5.173-0.036-7.575l35.355-34.281h-70.34c-2.588,0-5.398,0.363-6.143,0.763
			c-0.847,0.651-3.945,3.885-6.455,7.44c-0.162,0.234-0.349,0.166-0.541,0.375l-47.482,50.617l-8.419-9.076L209.412,96.587z"/>
	</g>
</g>
</svg>
